<?xml version="1.0" encoding="UTF-8" standalone="no"?>
<!-- Created with Inkscape (http://www.inkscape.org/) -->

<svg
   width="210mm"
   height="297mm"
   viewBox="0 0 210 297"
   version="1.1"
   id="svg5"
   xml:space="preserve"
   inkscape:version="1.2.2 (b0a8486541, 2022-12-01)"
   sodipodi:docname="nimiao.svg"
   xmlns:inkscape="http://www.inkscape.org/namespaces/inkscape"
   xmlns:sodipodi="http://sodipodi.sourceforge.net/DTD/sodipodi-0.dtd"
   xmlns="http://www.w3.org/2000/svg"
   xmlns:svg="http://www.w3.org/2000/svg"><sodipodi:namedview
     id="namedview7"
     pagecolor="#ffffff"
     bordercolor="#666666"
     borderopacity="1.0"
     inkscape:showpageshadow="2"
     inkscape:pageopacity="0.0"
     inkscape:pagecheckerboard="0"
     inkscape:deskcolor="#d1d1d1"
     inkscape:document-units="mm"
     showgrid="false"
     inkscape:zoom="0.457453"
     inkscape:cx="-281.99618"
     inkscape:cy="-821.94236"
     inkscape:window-width="3700"
     inkscape:window-height="2126"
     inkscape:window-x="-11"
     inkscape:window-y="-11"
     inkscape:window-maximized="1"
     inkscape:current-layer="layer1" /><defs
     id="defs2" /><g
     inkscape:label="Layer 1"
     inkscape:groupmode="layer"
     id="layer1"><path
       style="fill:#000000;stroke-width:0.264583"
       d="m 96.626895,163.18262 c -3.274215,-0.11343 -6.429375,-0.33227 -7.011455,-0.48631 -0.58209,-0.15405 -1.77271,-0.28362 -2.64584,-0.28795 -0.87312,-0.004 -2.76775,-0.18577 -4.21028,-0.40319 -1.44253,-0.21742 -3.58565,-0.39767 -4.7625,-0.40056 -1.17684,-0.003 -2.97315,-0.12922 -3.9918,-0.28075 -1.01865,-0.15153 -3.51896,-0.38569 -5.55625,-0.52035 -4.34,-0.28688 -9.14153,-0.8544 -12.30312,-1.45419 -1.23693,-0.23465 -2.72957,-0.51367 -3.31697,-0.62004 -0.58741,-0.10637 -1.2019,-0.27614 -1.36555,-0.37728 -0.3819,-0.23603 -3.94468,-0.88552 -6.15476,-1.12201 -0.94003,-0.10059 -1.89253,-0.2806 -2.11667,-0.40003 -0.22413,-0.11942 -1.65767,-0.52964 -3.18564,-0.9116 -1.52797,-0.38195 -3.22863,-0.80694 -3.77925,-0.94441 -1.07539,-0.26849 -1.05128,-0.25815 -3.62908,-1.5551 -1.81416,-0.91274 -4.79724,-2.8158 -5.68876,-3.62915 -0.29116,-0.26563 -1.00553,-0.8381 -1.5875,-1.27215 -3.72752,-2.7801 -9.01729,-12.13163 -10.62873,-18.78999 -1.07728,-4.45125 -1.28483,-15.5373 -0.3517,-18.78541 0.12542,-0.43657 0.30343,-1.32953 0.39559,-1.98438 0.22904,-1.62761 0.92687,-4.77865 1.20117,-5.42396 0.12372,-0.29104 0.30516,-0.94588 0.4032,-1.4552 0.098,-0.50933 0.26759,-1.04511 0.37678,-1.19063 0.10918,-0.14552 0.26196,-0.56224 0.33951,-0.92604 0.13843,-0.64948 0.59068,-1.99772 1.02063,-3.04271 0.11974,-0.29104 0.46241,-1.18401 0.76148,-1.98437 0.29906,-0.80037 0.64993,-1.693343 0.7797,-1.984385 0.12977,-0.291041 0.55321,-1.243541 0.94099,-2.116666 0.84511,-1.902876 3.83245,-7.863253 4.52989,-9.038093 3.14938,-5.305163 4.48984,-7.348829 6.82719,-10.408782 2.04005,-2.670747 5.22039,-6.615801 6.17258,-7.656783 0.47399,-0.518197 1.66319,-1.835145 2.64266,-2.926551 1.57773,-1.758045 3.09901,-3.203379 6.81428,-6.474105 0.58208,-0.512435 1.17739,-0.933789 1.32291,-0.936345 0.27412,-0.0048 1.64216,-1.107937 3.95269,-3.187258 0.73644,-0.662749 2.05336,-1.793843 2.92648,-2.513542 0.87313,-0.719698 1.62719,-1.397838 1.67569,-1.506979 0.0485,-0.109141 0.18973,-0.198437 0.31382,-0.198437 0.12409,0 1.38872,-0.833438 2.81027,-1.852084 1.42156,-1.018646 2.68431,-1.852083 2.8061,-1.852083 0.1218,0 0.45732,-0.219742 0.7456,-0.488315 0.28828,-0.268571 1.17627,-0.829493 1.97331,-1.246489 0.79704,-0.416999 1.44917,-0.852101 1.44917,-0.966896 0,-0.114795 0.11696,-0.208717 0.25992,-0.208717 0.14296,0 1.00616,-0.456419 1.91823,-1.014267 5.43101,-3.321762 8.70195,-4.811093 14.75518,-6.718377 4.83096,-1.522163 9.0402,-2.312352 15.213543,-2.856002 10.001847,-0.880799 9.839607,-0.877178 18.295097,-0.408394 8.70314,0.482514 9.17761,0.517365 13.05803,0.959214 9.49204,1.080823 12.97957,2.065094 21.64561,6.108954 0.91826,0.42849 1.93029,0.889095 2.24895,1.023565 0.31867,0.134471 1.17471,0.603482 1.90232,1.042246 0.7276,0.438767 1.50151,0.867445 1.71979,0.952622 0.21828,0.08518 0.57547,0.266099 0.79375,0.402048 0.21828,0.135945 0.57547,0.325702 0.79375,0.421674 0.81046,0.356349 6.55528,4.240239 8.65598,5.852028 2.37327,1.820931 7.30623,6.667105 8.60746,8.456043 0.44986,0.618464 0.91681,1.12448 1.03766,1.12448 0.12085,0 0.21973,0.178593 0.21973,0.396875 0,0.218281 0.10935,0.396875 0.243,0.396875 0.13366,0 0.50979,0.446484 0.83587,0.992187 0.32607,0.545703 0.85471,1.289844 1.17475,1.653646 0.32005,0.363802 0.80711,1.078177 1.08237,1.5875 0.27526,0.509323 0.6493,1.021254 0.8312,1.137626 0.1819,0.116372 0.33073,0.436766 0.33073,0.711989 0,0.275222 0.10673,0.566369 0.23718,0.646991 0.13045,0.08062 0.47267,0.593664 0.7605,1.140094 0.28782,0.546429 0.83594,1.576787 1.21803,2.289686 0.38209,0.712899 0.6947,1.493814 0.6947,1.735368 0,0.241554 0.17481,0.670306 0.38846,0.95278 0.21366,0.282475 0.39225,0.766903 0.39688,1.076508 0.005,0.309602 0.17494,0.701117 0.37847,0.870029 0.20352,0.168913 0.43063,0.749038 0.50467,1.289167 0.20756,1.514046 0.70642,3.57769 0.98805,4.087317 0.13964,0.252688 0.25462,0.669407 0.25552,0.926042 7.9e-4,0.256635 0.17949,0.807643 0.39688,1.22446 0.21738,0.416817 0.39703,1.309785 0.39922,1.984375 0.002,0.674589 0.17556,1.702776 0.38526,2.28486 0.56239,1.561031 0.56834,18.380431 0.008,21.563551 -0.21788,1.23692 -0.39631,2.74722 -0.39651,3.35621 -2e-4,0.60899 -0.11963,1.42096 -0.26541,1.80439 -0.14578,0.38342 -0.382,1.61156 -0.52494,2.7292 -0.25366,1.98341 -0.62717,3.84117 -1.41927,7.05915 -0.76836,3.12153 -0.92842,3.64039 -1.20976,3.92173 -0.15683,0.15683 -0.28515,0.49542 -0.28515,0.75242 0,0.257 -0.19879,0.9178 -0.44176,1.46844 -0.53283,1.20753 -2.66,5.60449 -2.98036,6.16054 -0.12575,0.21828 -0.52094,0.99219 -0.87819,1.71979 -1.02939,2.09656 -1.87631,3.69289 -2.03539,3.83646 -0.26131,0.23582 -0.81935,1.17853 -0.97888,1.65364 -0.0855,0.25467 -0.24482,0.46303 -0.35403,0.46303 -0.10921,0 -0.4968,0.44648 -0.86131,0.99218 -0.77074,1.15389 -1.74551,2.16011 -3.5243,3.63802 -1.71716,1.42671 -4.55813,3.57188 -4.73044,3.57188 -0.0766,0 -0.88559,0.45663 -1.79766,1.01475 -0.91206,0.55811 -2.13455,1.23579 -2.71664,1.50596 -0.58208,0.27016 -1.47505,0.7475 -1.98437,1.06075 -1.37962,0.84851 -7.10105,3.7059 -8.46667,4.22841 -1.45273,0.55585 -1.90189,0.74061 -3.49121,1.4361 -0.68324,0.29899 -1.42035,0.54361 -1.63803,0.54361 -0.21768,0 -0.46936,0.11906 -0.5593,0.26459 -0.0899,0.14552 -0.4208,0.26458 -0.73525,0.26458 -0.31445,0 -1.70641,0.369 -3.09324,0.82001 -1.38683,0.451 -2.8787,0.93153 -3.31526,1.06783 -0.43656,0.1363 -1.56765,0.31244 -2.51354,0.39143 -0.94589,0.079 -1.95792,0.24244 -2.24896,0.36323 -0.47919,0.19888 -2.74486,0.51891 -7.54062,1.06513 -0.94589,0.10773 -2.05497,0.32962 -2.46462,0.49308 -0.40965,0.16346 -1.32463,0.29721 -2.03329,0.29721 -0.70866,0 -1.62364,0.13434 -2.0333,0.29854 -0.40965,0.1642 -2.05451,0.39595 -3.65524,0.51501 -1.60073,0.11906 -3.98198,0.33023 -5.29167,0.46926 -3.75068,0.39818 -10.58832,0.51435 -17.065625,0.28995 z m 8.995835,-6.33694 c 1.38245,-0.12422 4.47807,-0.37005 6.87917,-0.54631 2.40109,-0.17625 4.76712,-0.48225 5.25783,-0.67999 0.49071,-0.19774 1.28664,-0.35952 1.76871,-0.35952 0.48208,0 1.21168,-0.14197 1.62134,-0.31549 0.40965,-0.17352 1.81639,-0.4006 3.12608,-0.50463 2.45107,-0.19469 4.95709,-0.65283 5.7316,-1.04783 0.24196,-0.1234 1.04831,-0.30508 1.79187,-0.40371 0.74357,-0.0986 1.41583,-0.28271 1.49391,-0.40905 0.0781,-0.12634 0.60344,-0.22971 1.16746,-0.22971 0.56403,0 1.36067,-0.1343 1.77033,-0.29844 0.40965,-0.16414 1.16154,-0.39058 1.67087,-0.50322 2.24682,-0.49686 8.06477,-3.03737 8.95212,-3.90909 0.25116,-0.24674 0.79087,-0.62314 1.19935,-0.83644 1.14465,-0.59771 7.04644,-6.59417 7.04644,-7.15947 0,-0.27292 0.14883,-0.59143 0.33073,-0.7078 0.39856,-0.25498 1.25677,-1.83739 1.25677,-2.31729 0,-0.18868 0.16606,-0.48085 0.36901,-0.64929 0.20296,-0.16844 0.43437,-0.68903 0.51425,-1.15688 0.26224,-1.53593 0.74018,-3.74603 0.98905,-4.57358 0.33292,-1.10699 0.31594,-7.97553 -0.0202,-8.18329 -0.14552,-0.0899 -0.26532,-0.54345 -0.26622,-1.00781 -7.9e-4,-0.46435 -0.16334,-1.15419 -0.36099,-1.53297 -0.19766,-0.37879 -0.44193,-1.23921 -0.54283,-1.91207 -0.1009,-0.67285 -0.29564,-1.29269 -0.43275,-1.37743 -0.13712,-0.0847 -0.24931,-0.51207 -0.24931,-0.94961 0,-0.43754 -0.13991,-1.05559 -0.31091,-1.37344 -0.17099,-0.31786 -0.40614,-0.99464 -0.52255,-1.50396 -0.55439,-2.4257 -0.9525,-3.90033 -1.23681,-4.58129 -0.17104,-0.40966 -0.31098,-0.89186 -0.31098,-1.07156 0,-0.17971 -0.0994,-0.43985 -0.22085,-0.57809 -0.12147,-0.13825 -0.43723,-0.84667 -0.70171,-1.57427 -0.59884,-1.64754 -2.40672,-5.30769 -3.65922,-7.40834 -0.5206,-0.87312 -1.19927,-2.10525 -1.50817,-2.73807 -0.63474,-1.300344 -2.08627,-3.724623 -2.49967,-4.174825 -0.15065,-0.16407 -0.45251,-0.562128 -0.67079,-0.884573 -0.21828,-0.322445 -0.61746,-0.84305 -0.88706,-1.156899 -0.2696,-0.313848 -0.62678,-0.749276 -0.79375,-0.967618 -0.28675,-0.374989 -4.803,-4.539379 -6.27911,-5.789909 -1.55606,-1.318265 -4.68251,-3.064457 -8.78691,-4.907693 -1.53719,-0.690334 -1.62514,-0.562062 -1.6339,2.38278 -0.01,3.357314 -0.96314,4.610764 -3.50614,4.610764 -2.45,0 -3.70834,-2.79745 -3.76413,-8.368125 -0.0191,-1.90681 -0.20097,-1.995842 -4.1732,-2.04288 -3.82953,-0.04535 -4.01743,0.24438 -3.14803,4.853924 0.88891,4.713018 -2.55173,7.781377 -5.38534,4.802635 -1.11015,-1.167009 -1.10033,-1.133025 -1.61559,-5.595554 -0.38099,-3.29964 -0.36892,-3.281889 -2.18166,-3.208552 -2.27724,0.09213 -3.985052,0.818616 -4.150872,1.765737 -0.150344,0.858718 0.546793,5.778365 0.863735,6.095306 0.978077,0.97808 -0.248068,3.96107 -1.985333,4.829951 -3.022132,1.511498 -4.82615,-0.570334 -5.58036,-6.439734 -0.35344,-2.750518 -0.77234,-3.054294 -2.71972,-1.97227 -0.56417,0.313468 -1.50201,0.824547 -2.08409,1.135732 -3.66696,1.960364 -8.74652,7.001383 -10.77306,10.69131 -0.25945,0.472413 -0.47173,1.03796 -0.47173,1.25677 0,0.218808 -0.11907,0.397833 -0.26459,0.397833 -0.14552,0 -0.26458,0.227026 -0.26458,0.504502 0,0.277477 -0.35719,1.300607 -0.79375,2.273628 -0.43656,0.97302 -0.79375,1.97233 -0.79375,2.22071 0,0.24837 -0.10076,0.56469 -0.22392,0.70294 -0.12315,0.13824 -0.48847,1.32291 -0.81181,2.6326 -0.32335,1.30969 -0.69999,2.79797 -0.83698,3.30729 -0.13699,0.50932 -0.37146,1.64042 -0.52104,2.51354 -4.39672,25.66349 -0.39096,40.86016 12.48059,47.3477 1.36448,0.68773 2.63934,1.38147 2.83303,1.54165 0.19369,0.16018 0.90806,0.37397 1.5875,0.4751 0.67943,0.10113 1.59252,0.30934 2.02909,0.46269 1.94182,0.68209 3.16136,0.87254 6.962674,1.08732 2.228741,0.12592 4.132286,0.30898 4.230096,0.40679 0.0978,0.0978 0.47696,0.10075 0.84254,0.007 0.36557,-0.0942 1.79578,-0.27295 3.17823,-0.39716 z M 87.2324,143.8808 c -1.12217,-1.23999 0.91009,-5.02511 2.69801,-5.02511 0.19057,0 0.34649,-0.1168 0.34649,-0.25954 0,-0.14275 0.29765,-0.33425 0.66145,-0.42556 0.36381,-0.0913 0.66146,-0.27217 0.66146,-0.40192 0,-0.43844 1.36834,-0.23959 2.14197,0.31128 0.768178,0.547 1.155417,2.36324 0.503865,2.36324 -0.145521,0 -0.264583,0.15784 -0.264583,0.35075 0,0.39343 -1.088442,1.50133 -1.474962,1.50133 -0.13763,0 -0.54668,0.2744 -0.90899,0.60979 -1.58916,1.47102 -3.52487,1.90375 -4.36471,0.97574 z m 50.27262,-3.43761 c -0.0899,-0.14552 -0.42438,-0.26532 -0.74322,-0.26621 -0.31883,-8e-4 -0.92073,-0.1795 -1.33754,-0.39688 -0.41682,-0.21738 -0.9137,-0.39524 -1.10418,-0.39524 -0.19048,0 -0.71266,-0.30824 -1.16038,-0.68498 -2.16839,-1.82458 0.36975,-4.59225 2.89011,-3.15148 0.36381,0.20796 0.96613,0.38234 1.3385,0.3875 0.37237,0.005 0.90815,0.18418 1.19062,0.39783 0.28248,0.21365 0.80001,0.39225 1.15008,0.39688 1.81517,0.024 3.1306,2.44584 1.92237,3.53928 -0.54759,0.49556 -3.86159,0.63407 -4.14636,0.1733 z m -20.75505,-4.34566 c -1.09064,-0.81553 -1.2934,-0.82931 -2.58628,-0.17574 -3.04656,1.54007 -4.75333,-1.55489 -2.33416,-4.23262 1.06493,-1.17874 1.30577,-3.51377 0.40778,-3.95356 -0.21828,-0.1069 -0.93265,-0.4473 -1.5875,-0.75645 -1.44472,-0.68203 -1.85482,-1.0064 -2.45103,-1.93864 -0.49181,-0.76899 -0.63411,-2.85358 -0.1948,-2.85358 0.14552,0 0.26458,-0.16801 0.26458,-0.37336 0,-0.89431 2.75542,-2.54835 5.15938,-3.0971 6.14894,-1.40362 9.57835,2.14191 5.91598,6.11629 -2.06518,2.24112 -2.29222,4.63577 -0.59234,6.24743 3.34768,3.17393 1.55216,7.67468 -2.00161,5.01733 z m -31.1248,-2.53597 c -1.18009,-0.36784 -1.8072,-1.17744 -1.7756,-2.2923 0.0548,-1.93439 0.3248,-2.01593 8.73024,-2.63701 5.085781,-0.37579 5.404514,4.19858 0.32659,4.68712 -4.39805,0.42313 -6.47872,0.49234 -7.28123,0.24219 z m 47.36455,-1.66516 c -2.04895,-1.76244 -0.74678,-3.86878 2.57989,-4.17313 1.21,-0.11069 2.85484,-0.40432 3.6552,-0.6525 3.42119,-1.06085 5.02709,-0.59638 5.02709,1.45398 0,1.08482 -1.2512,2.65802 -2.11398,2.65802 -0.23431,0 -0.54404,0.11802 -0.68828,0.26225 -1.02142,1.02143 -7.40145,1.36183 -8.45992,0.45138 z M 84.7651,125.97323 c -3.43736,-1.21539 -2.19971,-5.72794 1.25801,-4.58679 0.59556,0.19655 1.48602,0.2653 2.16904,0.16747 4.51394,-0.64657 5.08705,-0.53224 5.78558,1.15415 1.046428,2.5263 -5.12061,4.71204 -9.21263,3.26517 z m 46.36861,-1.8874 c -2.12298,-2.47946 1.33483,-4.54472 7.60912,-4.54472 0.49792,0 1.04422,-0.13891 1.214,-0.30869 0.52167,-0.52167 2.66483,-0.38081 3.2599,0.21426 1.35884,1.35884 0.22904,4.32776 -1.6469,4.32776 -0.29025,0 -0.76301,0.12592 -1.05058,0.27982 -1.1537,0.61745 -8.8617,0.64337 -9.38554,0.0316 z m -31.300893,-9.73868 c -3.235278,-2.26608 -0.265772,-9.06636 3.158733,-7.23362 1.06797,0.57156 1.91298,4.61428 1.07299,5.13342 -0.1294,0.08 -0.31421,0.4599 -0.41068,0.84427 -0.38017,1.51473 -2.47059,2.20183 -3.821043,1.25593 z m 29.949013,-1.35448 c -1.06253,-0.93156 -1.70768,-4.97595 -0.87577,-5.49011 0.14552,-0.0899 0.26459,-0.56356 0.26459,-1.0525 0,-3.05787 3.36699,-4.35013 5.2171,-2.00235 0.70312,0.89226 0.0296,6.89131 -0.77364,6.89131 -0.11557,0 -0.21013,0.16801 -0.21013,0.37336 0,1.24228 -2.61233,2.16564 -3.62215,1.28029 z"
       id="path2606" /></g></svg>
