<?xml version="1.0" encoding="UTF-8" standalone="no"?>
<!-- Created with Inkscape (http://www.inkscape.org/) -->

<svg
   width="210mm"
   height="297mm"
   viewBox="0 0 210 297"
   version="1.1"
   id="svg26033"
   inkscape:version="1.2.2 (b0a8486541, 2022-12-01)"
   sodipodi:docname="pwm.svg"
   xmlns:inkscape="http://www.inkscape.org/namespaces/inkscape"
   xmlns:sodipodi="http://sodipodi.sourceforge.net/DTD/sodipodi-0.dtd"
   xmlns="http://www.w3.org/2000/svg"
   xmlns:svg="http://www.w3.org/2000/svg">
  <sodipodi:namedview
     id="namedview26035"
     pagecolor="#ffffff"
     bordercolor="#666666"
     borderopacity="1.0"
     inkscape:showpageshadow="2"
     inkscape:pageopacity="0.0"
     inkscape:pagecheckerboard="0"
     inkscape:deskcolor="#d1d1d1"
     inkscape:document-units="mm"
     showgrid="false"
     inkscape:zoom="3.0337341"
     inkscape:cx="553.44336"
     inkscape:cy="517.18442"
     inkscape:window-width="2115"
     inkscape:window-height="1451"
     inkscape:window-x="1369"
     inkscape:window-y="545"
     inkscape:window-maximized="0"
     inkscape:current-layer="layer1" />
  <defs
     id="defs26030" />
  <g
     inkscape:label="Layer 1"
     inkscape:groupmode="layer"
     id="layer1">
    <path
       id="rect4686"
       style="stroke:#000000;stroke-width:0.262629"
       d="M 129.8391 111.97094 C 128.15147 111.97094 126.79278 113.32964 126.79278 115.01727 L 126.79278 122.7801 C 126.79278 124.46774 128.15147 125.82643 129.8391 125.82643 L 157.78675 125.82643 C 159.47438 125.82643 160.83308 124.46774 160.83308 122.7801 L 160.83308 115.01727 C 160.83308 113.32964 159.47438 111.97094 157.78675 111.97094 L 129.8391 111.97094 z M 140.15992 116.02599 C 140.36456 116.02599 140.50209 116.09202 140.57281 116.2234 C 140.64355 116.35477 140.7058 116.54535 140.75885 116.79545 L 141.48645 120.03918 L 142.30087 117.00371 C 142.36147 116.77128 142.41614 116.59478 142.46417 116.47351 C 142.51217 116.35224 142.59014 116.24722 142.69878 116.1588 C 142.80742 116.07037 142.95521 116.02599 143.14217 116.02599 C 143.33165 116.02599 143.47835 116.07307 143.58193 116.16655 C 143.68804 116.2575 143.76114 116.35712 143.80156 116.46576 C 143.84196 116.57439 143.89662 116.7536 143.96486 117.00371 L 144.78703 120.03918 L 145.51463 116.79545 C 145.55003 116.6262 145.58307 116.49355 145.61333 116.39755 C 145.6462 116.30155 145.70035 116.21547 145.77611 116.13968 C 145.85443 116.06389 145.96704 116.02599 146.11356 116.02599 C 146.2601 116.02599 146.38355 116.07525 146.4846 116.17379 C 146.58819 116.26979 146.64014 116.39106 146.64014 116.53759 C 146.64014 116.64117 146.61255 116.80682 146.55695 117.0342 L 145.63194 120.77454 C 145.5688 121.02718 145.51575 121.21287 145.47277 121.33161 C 145.43237 121.44783 145.36198 121.55014 145.2609 121.63857 C 145.16237 121.72699 145.02215 121.77138 144.84025 121.77138 C 144.66845 121.77138 144.53042 121.72808 144.42684 121.64219 C 144.32326 121.55629 144.25126 121.46046 144.21084 121.35435 C 144.17044 121.24571 144.11359 121.0611 144.0403 120.8009 L 143.14217 117.46983 L 142.23266 120.8009 C 142.16192 121.05352 142.10508 121.23543 142.06213 121.3466 C 142.02173 121.45523 141.94973 121.55376 141.84612 121.64219 C 141.74254 121.72808 141.60502 121.77138 141.43323 121.77138 C 141.29427 121.77138 141.17949 121.74486 141.08855 121.6918 C 141.00012 121.64126 140.92812 121.56926 140.87254 121.47579 C 140.81694 121.37979 140.77147 121.26719 140.73611 121.13834 C 140.70071 121.00697 140.66876 120.8857 140.64103 120.77454 L 139.71654 117.0342 C 139.66094 116.81693 139.63334 116.65128 139.63334 116.53759 C 139.63334 116.39358 139.6837 116.27231 139.78475 116.17379 C 139.88581 116.07525 140.01087 116.02599 140.15992 116.02599 z M 135.64288 116.12108 L 137.08672 116.12108 C 137.51368 116.12108 137.84178 116.1536 138.07168 116.21926 C 138.29906 116.2824 138.49502 116.38741 138.65924 116.53397 C 138.82598 116.68051 138.95213 116.85971 139.03802 117.07192 C 139.12392 117.28414 139.16722 117.52289 139.16722 117.78816 C 139.16722 118.35407 138.9929 118.78391 138.64425 119.07697 C 138.29561 119.36751 137.77643 119.5126 137.08672 119.5126 L 136.05578 119.5126 L 136.05578 121.08512 C 136.05578 121.30997 136.00272 121.4805 135.89661 121.59671 C 135.79051 121.71293 135.65678 121.77138 135.49509 121.77138 C 135.32582 121.77138 135.1894 121.71453 135.08581 121.60085 C 134.98223 121.48463 134.93027 121.31519 134.93027 121.09287 L 134.93027 116.81044 C 134.93027 116.56285 134.98711 116.38635 135.1008 116.28024 C 135.21449 116.17413 135.3953 116.12108 135.64288 116.12108 z M 148.03851 116.12108 L 148.38733 116.12108 C 148.59701 116.12108 148.7486 116.14005 148.84208 116.17792 C 148.93808 116.21579 149.00847 116.284 149.05395 116.38256 C 149.09942 116.48109 149.15138 116.64134 149.2095 116.86367 L 150.01668 119.90689 L 150.82387 116.86367 C 150.882 116.64134 150.93396 116.48109 150.97941 116.38256 C 151.02488 116.28403 151.09419 116.21581 151.18767 116.17792 C 151.28368 116.14005 151.43635 116.12108 151.64604 116.12108 L 151.99486 116.12108 C 152.2096 116.12108 152.38013 116.16385 152.50645 116.24975 C 152.63277 116.33313 152.69611 116.49608 152.69611 116.73861 L 152.69611 121.13472 C 152.69611 121.34694 152.64794 121.50611 152.55193 121.61222 C 152.45846 121.71832 152.33231 121.77138 152.17314 121.77138 C 152.02408 121.77138 151.9012 121.71832 151.8052 121.61222 C 151.7092 121.50611 151.66154 121.34694 151.66154 121.13472 L 151.66154 117.2993 L 150.77064 120.83914 C 150.71251 121.06904 150.66485 121.23796 150.62698 121.3466 C 150.59158 121.4527 150.52446 121.55014 150.42596 121.63857 C 150.32743 121.72699 150.191 121.77138 150.01668 121.77138 C 149.88531 121.77138 149.77432 121.74218 149.68337 121.68405 C 149.59242 121.62845 149.52151 121.55644 149.47098 121.46804 C 149.42045 121.37962 149.37985 121.28218 149.34954 121.17607 C 149.32174 121.06743 149.29306 120.95535 149.26272 120.83914 L 148.37182 117.2993 L 148.37182 121.13472 C 148.37182 121.34694 148.32417 121.50611 148.22816 121.61222 C 148.13469 121.71832 148.00963 121.77138 147.85299 121.77138 C 147.70141 121.77138 147.57744 121.71941 147.48144 121.61583 C 147.38544 121.50973 147.33726 121.34947 147.33726 121.13472 L 147.33726 116.73861 C 147.33726 116.49608 147.40059 116.33313 147.52691 116.24975 C 147.65323 116.16385 147.82377 116.12108 148.03851 116.12108 z M 136.05578 116.96599 L 136.05578 118.66356 L 136.81387 118.66356 C 137.07914 118.66356 137.30003 118.63596 137.47688 118.58036 C 137.65626 118.52476 137.79268 118.43381 137.88616 118.30751 C 137.97964 118.18119 138.0262 118.01553 138.0262 117.8109 C 138.0262 117.56583 137.9542 117.36659 137.81019 117.21248 C 137.64851 117.04826 137.31663 116.96599 136.81387 116.96599 L 136.05578 116.96599 z " />
    <g
       aria-label="PWM"
       id="text21253"
       style="font-size:7.76111px;line-height:1.25;letter-spacing:0px;word-spacing:0px;stroke-width:0.264583" />
  </g>
</svg>
