<?xml version="1.0" encoding="UTF-8" standalone="no"?>
<!-- Created with Inkscape (http://www.inkscape.org/) -->

<svg
   width="210mm"
   height="297mm"
   viewBox="0 0 210 297"
   version="1.1"
   id="svg5"
   inkscape:version="1.2.2 (b0a8486541, 2022-12-01)"
   sodipodi:docname="cart.svg"
   xmlns:inkscape="http://www.inkscape.org/namespaces/inkscape"
   xmlns:sodipodi="http://sodipodi.sourceforge.net/DTD/sodipodi-0.dtd"
   xmlns="http://www.w3.org/2000/svg"
   xmlns:svg="http://www.w3.org/2000/svg">
  <sodipodi:namedview
     id="namedview7"
     pagecolor="#ffffff"
     bordercolor="#666666"
     borderopacity="1.0"
     inkscape:showpageshadow="2"
     inkscape:pageopacity="0.0"
     inkscape:pagecheckerboard="0"
     inkscape:deskcolor="#d1d1d1"
     inkscape:document-units="mm"
     showgrid="false"
     inkscape:zoom="12.134936"
     inkscape:cx="339.39197"
     inkscape:cy="482.20277"
     inkscape:window-width="3700"
     inkscape:window-height="2126"
     inkscape:window-x="-11"
     inkscape:window-y="-11"
     inkscape:window-maximized="1"
     inkscape:current-layer="layer1" />
  <defs
     id="defs2" />
  <g
     inkscape:label="Layer 1"
     inkscape:groupmode="layer"
     id="layer1">
    <path
       id="rect4686"
       style="stroke:#000000;stroke-width:0.262629"
       d="M 76.111117 117.82692 C 74.423484 117.82692 73.064791 119.18509 73.064791 120.87273 L 73.064791 128.63608 C 73.064791 130.32367 74.423484 131.6824 76.111117 131.6824 L 104.05876 131.6824 C 105.7464 131.6824 107.10457 130.32367 107.10457 128.63608 L 107.10457 120.87273 C 107.10457 119.18509 105.7464 117.82692 104.05876 117.82692 L 76.111117 117.82692 z M 82.595992 121.59465 C 83.045692 121.59465 83.446299 121.68399 83.797469 121.86336 C 84.148639 122.04274 84.417701 122.26523 84.604655 122.53051 C 84.791608 122.79325 84.885258 123.04227 84.885258 123.27723 C 84.885258 123.40608 84.839782 123.51977 84.748832 123.61829 C 84.657882 123.71683 84.54798 123.76609 84.419137 123.76609 C 84.275132 123.76609 84.166324 123.73198 84.093058 123.66377 C 84.022319 123.59556 83.942737 123.47808 83.854313 123.31134 C 83.707782 123.03596 83.534551 122.82971 83.334965 122.69329 C 83.137906 122.55686 82.894279 122.48865 82.603743 122.48865 C 82.141415 122.48865 81.772729 122.66458 81.497351 123.01575 C 81.2245 123.36692 81.088074 123.86554 81.088074 124.5123 C 81.088074 124.94431 81.148708 125.30432 81.269975 125.59233 C 81.391242 125.87781 81.562866 126.09164 81.785189 126.23312 C 82.007512 126.3746 82.267904 126.445 82.56602 126.445 C 82.889396 126.445 83.162254 126.36542 83.384574 126.20625 C 83.609424 126.04456 83.778349 125.80851 83.892037 125.49777 C 83.940037 125.35123 83.99958 125.23267 84.070321 125.14172 C 84.14106 125.04824 84.254748 125.00116 84.411385 125.00116 C 84.545284 125.00116 84.660064 125.04824 84.756067 125.14172 C 84.85207 125.2352 84.900244 125.35106 84.900244 125.49001 L 84.900244 125.49053 C 84.900244 125.66738 84.85586 125.85904 84.767436 126.06621 C 84.681538 126.27084 84.545112 126.4733 84.358158 126.67289 C 84.171208 126.86995 83.932459 127.0302 83.641923 127.154 C 83.351387 127.27779 83.013021 127.33951 82.626481 127.33951 C 82.333419 127.33951 82.067051 127.31192 81.827047 127.25632 C 81.587038 127.20072 81.368332 127.11464 81.171273 126.99845 C 80.97674 126.87971 80.797538 126.72433 80.633321 126.53233 C 80.48679 126.358 80.361733 126.16364 80.25815 125.9489 C 80.154568 125.73163 80.076077 125.50046 80.023022 125.2554 C 79.972499 125.01034 79.947058 124.74995 79.947058 124.47457 C 79.947058 124.0274 80.011481 123.62679 80.140328 123.2731 C 80.2717 122.9194 80.459 122.61784 80.701534 122.36772 C 80.944068 122.11508 81.228289 121.92291 81.554195 121.79153 C 81.880101 121.66016 82.227138 121.59465 82.595992 121.59465 z M 88.068526 121.59465 C 88.225163 121.59465 88.355101 121.625 88.458683 121.6856 C 88.564792 121.74373 88.649255 121.81952 88.712415 121.91297 C 88.778099 122.00645 88.832763 122.10768 88.875712 122.21631 C 88.921185 122.32242 88.97803 122.46482 89.046244 122.64419 L 90.497319 126.2295 C 90.611004 126.50236 90.667851 126.70051 90.667851 126.8243 C 90.667851 126.95315 90.613705 127.07172 90.50507 127.18035 C 90.398961 127.28646 90.270115 127.33951 90.11853 127.33951 C 90.030106 127.33951 89.954314 127.32329 89.891154 127.29042 C 89.827994 127.26009 89.774939 127.2184 89.731991 127.16536 C 89.689044 127.10976 89.642478 127.02639 89.591947 126.91525 C 89.544018 126.80173 89.502228 126.70186 89.46689 126.61604 L 89.201274 125.91841 L 86.943014 125.91841 L 86.677397 126.63103 C 86.573815 126.90893 86.48556 127.09732 86.412297 127.19585 C 86.339031 127.29185 86.218854 127.33951 86.052112 127.33951 C 85.910633 127.33951 85.785576 127.28806 85.676941 127.18448 C 85.568306 127.0809 85.51416 126.96342 85.51416 126.83205 C 85.51416 126.75626 85.526617 126.67777 85.551884 126.59692 C 85.577151 126.51608 85.618836 126.40348 85.676941 126.25948 L 87.098043 122.65194 C 87.138463 122.54839 87.186637 122.4244 87.24222 122.28039 C 87.300327 122.13386 87.36096 122.01259 87.424121 121.91659 C 87.489808 121.82058 87.57427 121.7437 87.677852 121.6856 C 87.783961 121.625 87.914416 121.59465 88.068526 121.59465 z M 92.176286 121.68921 L 94.006665 121.68921 C 94.259305 121.68921 94.475315 121.70059 94.654687 121.72332 C 94.834062 121.74352 94.995924 121.78681 95.139929 121.85251 C 95.314251 121.92577 95.468017 122.03028 95.601917 122.1667 C 95.735815 122.30313 95.837045 122.46229 95.905257 122.64419 C 95.975996 122.82357 96.011194 123.01415 96.011194 123.21625 C 96.011194 123.63058 95.893715 123.96189 95.658761 124.20947 C 95.426331 124.45706 95.072807 124.63248 94.597843 124.73606 C 94.797429 124.84217 94.988 124.99914 95.169902 125.20631 C 95.351801 125.41347 95.513665 125.63436 95.655143 125.86932 C 95.799148 126.10175 95.910138 126.31288 95.988456 126.50236 C 96.069301 126.68931 96.109896 126.81816 96.109896 126.8889 C 96.109896 126.96216 96.086066 127.03525 96.038066 127.10852 C 95.992592 127.17926 95.92926 127.23502 95.848413 127.27544 C 95.767569 127.31837 95.673919 127.33951 95.56781 127.33951 C 95.44149 127.33951 95.335381 127.30916 95.249483 127.24856 C 95.163586 127.19043 95.089401 127.11624 95.026241 127.02532 C 94.965608 126.93437 94.882236 126.80013 94.776127 126.62328 L 94.324992 125.87294 C 94.163302 125.59756 94.018205 125.38804 93.88936 125.24403 C 93.76304 125.10003 93.634192 125.0015 93.50282 124.94845 C 93.371447 124.89538 93.205794 124.86886 93.006209 124.86886 L 92.611918 124.86886 L 92.611918 126.65377 C 92.611918 126.88873 92.560471 127.06196 92.456889 127.17312 C 92.353306 127.28428 92.217971 127.33951 92.051229 127.33951 C 91.871854 127.33951 91.732729 127.28158 91.6342 127.16536 C 91.53567 127.04915 91.486405 126.87862 91.486405 126.65377 L 91.486405 122.37909 C 91.486405 122.13656 91.541068 121.96114 91.649703 121.85251 C 91.758338 121.74387 91.933751 121.68921 92.176286 121.68921 z M 96.720194 121.68921 L 100.29724 121.68921 C 100.49177 121.68921 100.63577 121.7325 100.72925 121.8184 C 100.82525 121.9043 100.87343 122.01639 100.87343 122.15533 C 100.87343 122.29429 100.82525 122.40688 100.72925 122.49278 C 100.63325 122.57615 100.48924 122.61784 100.29724 122.61784 L 99.069405 122.61784 L 99.069405 126.65377 C 99.069405 126.8862 99.017958 127.05943 98.914376 127.17312 C 98.810793 127.28428 98.676549 127.33951 98.512333 127.33951 C 98.345591 127.33951 98.209164 127.28267 98.103056 127.16898 C 97.999473 127.0553 97.948027 126.88367 97.948027 126.65377 L 97.948027 122.61784 L 96.720194 122.61784 C 96.528188 122.61784 96.385273 122.57615 96.291797 122.49278 C 96.19832 122.40688 96.151754 122.29429 96.151754 122.15533 C 96.151754 122.01133 96.199411 121.89764 96.295414 121.81427 C 96.393943 121.7309 96.535767 121.68921 96.720194 121.68921 z M 92.611918 122.53464 L 92.611918 124.06168 L 93.620125 124.06168 C 93.89045 124.06168 94.117827 124.03893 94.302254 123.99347 C 94.486681 123.94547 94.626897 123.86588 94.7229 123.75472 C 94.82143 123.64103 94.870695 123.48566 94.870695 123.2886 C 94.870695 123.13449 94.831708 122.99915 94.753389 122.88294 C 94.675072 122.7642 94.566263 122.67595 94.427311 122.61784 C 94.295939 122.56224 94.037154 122.53464 93.650614 122.53464 L 92.611918 122.53464 z M 88.060775 122.78062 L 87.238603 125.0735 L 88.89845 125.0735 L 88.060775 122.78062 z " />
    <g
       aria-label="CART"
       id="text21253"
       style="font-size:7.76111px;line-height:1.25;letter-spacing:0px;word-spacing:0px;stroke-width:0.264583" />
  </g>
</svg>
