<?xml version="1.0" encoding="UTF-8" standalone="no"?>
<!-- Created with Inkscape (http://www.inkscape.org/) -->

<svg
   width="210mm"
   height="297mm"
   viewBox="0 0 210 297"
   version="1.1"
   id="svg24045"
   inkscape:version="1.2.2 (b0a8486541, 2022-12-01)"
   sodipodi:docname="rtc.svg"
   xmlns:inkscape="http://www.inkscape.org/namespaces/inkscape"
   xmlns:sodipodi="http://sodipodi.sourceforge.net/DTD/sodipodi-0.dtd"
   xmlns="http://www.w3.org/2000/svg"
   xmlns:svg="http://www.w3.org/2000/svg">
  <sodipodi:namedview
     id="namedview24047"
     pagecolor="#ffffff"
     bordercolor="#666666"
     borderopacity="1.0"
     inkscape:showpageshadow="2"
     inkscape:pageopacity="0.0"
     inkscape:pagecheckerboard="0"
     inkscape:deskcolor="#d1d1d1"
     inkscape:document-units="mm"
     showgrid="false"
     inkscape:zoom="8.5806958"
     inkscape:cx="389.82852"
     inkscape:cy="455.55746"
     inkscape:window-width="2115"
     inkscape:window-height="1451"
     inkscape:window-x="518"
     inkscape:window-y="260"
     inkscape:window-maximized="0"
     inkscape:current-layer="layer1" />
  <defs
     id="defs24042" />
  <g
     inkscape:label="Layer 1"
     inkscape:groupmode="layer"
     id="layer1">
    <path
       id="rect4686"
       style="stroke:#000000;stroke-width:0.262629"
       d="M 93.084241 110.24392 C 91.396608 110.24392 90.037915 111.6026 90.037915 113.29024 L 90.037915 121.05359 C 90.037915 122.74123 91.396608 124.09992 93.084241 124.09992 L 121.03189 124.09992 C 122.71953 124.09992 124.07821 122.74123 124.07821 121.05359 L 124.07821 113.29024 C 124.07821 111.6026 122.71953 110.24392 121.03189 110.24392 L 93.084241 110.24392 z M 112.05104 114.29948 C 112.50074 114.29948 112.90084 114.38883 113.252 114.5682 C 113.60317 114.74757 113.87223 114.97007 114.05919 115.23534 C 114.24614 115.49809 114.33979 115.74711 114.33979 115.98207 C 114.33979 116.11091 114.29431 116.2246 114.20337 116.32313 C 114.11241 116.42166 114.00252 116.47093 113.87367 116.47093 C 113.72966 116.47093 113.62086 116.43682 113.54759 116.36861 C 113.47686 116.30039 113.39727 116.18291 113.30885 116.01617 C 113.16231 115.74079 112.9896 115.53455 112.79001 115.39812 C 112.59295 115.2617 112.34881 115.19349 112.05828 115.19349 C 111.59594 115.19349 111.22726 115.36941 110.95188 115.72059 C 110.67903 116.07175 110.54261 116.57038 110.54261 117.21713 C 110.54261 117.64915 110.60324 118.00916 110.72451 118.29717 C 110.84577 118.58265 111.0174 118.79648 111.23972 118.93796 C 111.46205 119.07944 111.72244 119.14983 112.02055 119.14983 C 112.34393 119.14983 112.61678 119.07025 112.83911 118.91109 C 113.06395 118.74939 113.23339 118.51335 113.34709 118.2026 C 113.39509 118.05607 113.45411 117.9375 113.52485 117.84655 C 113.59559 117.75307 113.70928 117.70599 113.86592 117.70599 C 113.99982 117.70599 114.11512 117.75307 114.21112 117.84655 C 114.30712 117.94003 114.35478 118.0559 114.35478 118.19485 L 114.35478 118.19537 C 114.35478 118.37222 114.31091 118.56388 114.22249 118.77104 C 114.13659 118.97568 114.00016 119.17814 113.81321 119.37773 C 113.62625 119.57479 113.38751 119.73504 113.09697 119.85883 C 112.80644 119.98263 112.46755 120.04435 112.08101 120.04435 C 111.78795 120.04435 111.52159 120.01675 111.28158 119.96115 C 111.04157 119.90555 110.82287 119.81949 110.62581 119.70329 C 110.43127 119.58455 110.25207 119.42917 110.08785 119.23717 C 109.94132 119.06285 109.81627 118.86849 109.71268 118.65374 C 109.6091 118.43647 109.53061 118.20531 109.47756 117.96024 C 109.42702 117.71518 109.40211 117.45478 109.40211 117.17941 C 109.40211 116.73224 109.46653 116.33163 109.59538 115.97793 C 109.72675 115.62424 109.91353 115.32268 110.15607 115.07256 C 110.3986 114.81992 110.68282 114.62774 111.00873 114.49637 C 111.33463 114.365 111.68219 114.29948 112.05104 114.29948 z M 100.45072 114.39405 L 102.2811 114.39405 C 102.53374 114.39405 102.74974 114.40542 102.92912 114.42816 C 103.10849 114.44836 103.27035 114.49165 103.41436 114.55735 C 103.58868 114.63062 103.74296 114.73511 103.87686 114.87154 C 104.01076 115.00797 104.11147 115.16713 104.17969 115.34903 C 104.25043 115.5284 104.28614 115.71949 104.28614 115.92161 C 104.28614 116.33593 104.16866 116.66672 103.93371 116.91431 C 103.70127 117.1619 103.34723 117.33731 102.87227 117.44089 C 103.07186 117.547 103.26295 117.70398 103.44485 117.91115 C 103.62675 118.11832 103.78809 118.3392 103.92957 118.57416 C 104.07358 118.80658 104.18509 119.01771 104.2634 119.20719 C 104.34425 119.39415 104.38433 119.523 104.38433 119.59373 C 104.38433 119.667 104.3605 119.74009 104.3125 119.81336 C 104.26703 119.8841 104.2037 119.93985 104.12284 119.98027 C 104.042 120.02321 103.94886 120.04435 103.84276 120.04435 C 103.71644 120.04435 103.61033 120.014 103.52443 119.9534 C 103.43853 119.89527 103.36383 119.82109 103.30067 119.73016 C 103.24007 119.63921 103.1567 119.50496 103.05056 119.32812 L 102.59942 118.57778 C 102.43773 118.3024 102.29264 118.09287 102.16379 117.94887 C 102.03747 117.80487 101.90862 117.70634 101.77725 117.65328 C 101.64588 117.60022 101.48023 117.5737 101.28064 117.5737 L 100.88687 117.5737 L 100.88687 119.35861 C 100.88687 119.59356 100.83491 119.76679 100.73132 119.87795 C 100.62774 119.98912 100.49241 120.04435 100.32566 120.04435 C 100.14629 120.04435 100.00768 119.98642 99.909147 119.8702 C 99.810618 119.75398 99.761353 119.58345 99.761353 119.35861 L 99.761353 115.08393 C 99.761353 114.8414 99.815498 114.66598 99.924133 114.55735 C 100.03277 114.44872 100.20818 114.39405 100.45072 114.39405 z M 104.99462 114.39405 L 108.57218 114.39405 C 108.76672 114.39405 108.91072 114.43735 109.0042 114.52324 C 109.1002 114.60914 109.14786 114.72122 109.14786 114.86017 C 109.14786 114.99913 109.1002 115.11173 109.0042 115.19762 C 108.90819 115.28099 108.76419 115.32268 108.57218 115.32268 L 107.34435 115.32268 L 107.34435 119.35861 C 107.34435 119.59103 107.29239 119.76427 107.18881 119.87795 C 107.08522 119.98912 106.95149 120.04435 106.78728 120.04435 C 106.62054 120.04435 106.48412 119.98751 106.378 119.87382 C 106.27442 119.76013 106.22246 119.58851 106.22246 119.35861 L 106.22246 115.32268 L 104.99462 115.32268 C 104.80263 115.32268 104.65971 115.28099 104.56623 115.19762 C 104.47275 115.11173 104.42618 114.99913 104.42618 114.86017 C 104.42618 114.71617 104.47436 114.60248 104.57036 114.51911 C 104.66889 114.43574 104.81021 114.39405 104.99462 114.39405 z M 101.92504 115.23896 L 101.92504 115.23948 L 100.88687 115.23948 L 100.88687 116.76652 L 101.89456 116.76652 C 102.16488 116.76652 102.39226 116.74377 102.57668 116.6983 C 102.76111 116.6503 102.90184 116.57072 102.99785 116.45956 C 103.09637 116.34587 103.14513 116.1905 103.14513 115.99344 C 103.14513 115.83932 103.10614 115.70399 103.02782 115.58778 C 102.9495 115.46904 102.8412 115.38078 102.70226 115.32268 C 102.57089 115.26708 102.31158 115.23896 101.92504 115.23896 z " />
    <g
       aria-label="RTC"
       id="text21253"
       style="font-size:7.76111px;line-height:1.25;letter-spacing:0px;word-spacing:0px;stroke-width:0.264583" />
  </g>
</svg>
