<?xml version="1.0" encoding="UTF-8" standalone="no"?>
<!-- Created with Inkscape (http://www.inkscape.org/) -->

<svg
   width="210mm"
   height="297mm"
   viewBox="0 0 210 297"
   version="1.1"
   id="svg27669"
   inkscape:version="1.2.2 (b0a8486541, 2022-12-01)"
   sodipodi:docname="uart.svg"
   xmlns:inkscape="http://www.inkscape.org/namespaces/inkscape"
   xmlns:sodipodi="http://sodipodi.sourceforge.net/DTD/sodipodi-0.dtd"
   xmlns="http://www.w3.org/2000/svg"
   xmlns:svg="http://www.w3.org/2000/svg">
  <sodipodi:namedview
     id="namedview27671"
     pagecolor="#ffffff"
     bordercolor="#666666"
     borderopacity="1.0"
     inkscape:showpageshadow="2"
     inkscape:pageopacity="0.0"
     inkscape:pagecheckerboard="0"
     inkscape:deskcolor="#d1d1d1"
     inkscape:document-units="mm"
     showgrid="false"
     inkscape:zoom="3.0337341"
     inkscape:cx="335.06562"
     inkscape:cy="307.04734"
     inkscape:window-width="3700"
     inkscape:window-height="2126"
     inkscape:window-x="-11"
     inkscape:window-y="-11"
     inkscape:window-maximized="1"
     inkscape:current-layer="layer1" />
  <defs
     id="defs27666" />
  <g
     inkscape:label="Layer 1"
     inkscape:groupmode="layer"
     id="layer1">
    <path
       id="rect4686"
       style="stroke:#000000;stroke-width:0.262629"
       d="M 87.904195 42.654244 C 86.216566 42.654244 84.857869 44.012937 84.857869 45.70057 L 84.857869 53.46392 C 84.857869 55.151549 86.216566 56.509729 87.904195 56.509729 L 115.85184 56.509729 C 117.53947 56.509729 118.89817 55.151549 118.89817 53.46392 L 118.89817 45.70057 C 118.89817 44.012937 117.53947 42.654244 115.85184 42.654244 L 87.904195 42.654244 z M 92.203158 46.70981 C 92.377476 46.70981 92.514996 46.766655 92.616052 46.880343 C 92.719634 46.994028 92.771598 47.164567 92.771598 47.391939 L 92.771598 50.124072 C 92.771598 50.434819 92.805704 50.695212 92.873918 50.904903 C 92.944657 51.112068 93.06811 51.273414 93.244954 51.389628 C 93.421802 51.503316 93.669735 51.56016 93.988062 51.56016 C 94.427652 51.56016 94.738406 51.44429 94.920304 51.211861 C 95.102206 50.976906 95.193156 50.62177 95.193156 50.14681 L 95.193156 47.391939 C 95.193156 47.16204 95.243512 46.991501 95.344568 46.880343 C 95.445624 46.766655 95.580959 46.70981 95.750228 46.70981 C 95.919497 46.70981 96.055923 46.766655 96.159505 46.880343 C 96.265614 46.991501 96.318669 47.16204 96.318669 47.391939 L 96.318669 50.063611 C 96.318669 50.498149 96.275372 50.860347 96.189478 51.150883 C 96.106107 51.441419 95.946943 51.696931 95.711987 51.916728 C 95.509879 52.103681 95.274919 52.240107 95.007121 52.326005 C 94.739322 52.411902 94.426392 52.454679 94.067643 52.454679 C 93.640685 52.454679 93.273089 52.4092 92.964868 52.318254 C 92.656647 52.224776 92.404925 52.081862 92.210392 51.889856 C 92.015859 51.695323 91.873461 51.447904 91.782511 51.147266 C 91.691561 50.844097 91.646086 50.48299 91.646086 50.063611 L 91.646086 47.391939 C 91.646086 47.164567 91.696442 46.994028 91.797498 46.880343 C 91.901077 46.766655 92.036415 46.70981 92.203158 46.70981 z M 99.304533 46.70981 C 99.461169 46.70981 99.591626 46.740128 99.695207 46.800761 C 99.801313 46.858868 99.885778 46.93466 99.948938 47.028137 C 100.0146 47.121614 100.06875 47.222326 100.11172 47.330961 C 100.15719 47.43707 100.21403 47.579984 100.28225 47.759359 L 101.73384 51.344153 C 101.84753 51.617005 101.90437 51.815672 101.90437 51.939465 C 101.90437 52.068312 101.85023 52.186881 101.74159 52.295516 C 101.63548 52.401625 101.50663 52.454679 101.35505 52.454679 C 101.26663 52.454679 101.19084 52.438427 101.12768 52.405587 C 101.06454 52.375267 101.01149 52.333581 100.96851 52.28053 C 100.92558 52.22495 100.8785 52.141578 100.82795 52.030416 C 100.77995 51.916728 100.73827 51.816588 100.7029 51.730693 L 100.4378 51.033577 L 98.17902 51.033577 L 97.91392 51.746195 C 97.810338 52.0241 97.722086 52.211973 97.64882 52.310502 C 97.575555 52.406505 97.455378 52.454679 97.288635 52.454679 C 97.147157 52.454679 97.0221 52.402715 96.913464 52.299133 C 96.804829 52.195551 96.750684 52.078073 96.750684 51.9467 C 96.750684 51.870908 96.763141 51.792934 96.788407 51.712089 C 96.813674 51.631244 96.85536 51.518647 96.913464 51.374642 L 98.334566 47.76711 C 98.374986 47.663528 98.423162 47.539559 98.478743 47.395557 C 98.53685 47.249025 98.597484 47.127756 98.660645 47.031755 C 98.726329 46.935751 98.810794 46.858868 98.914376 46.800761 C 99.020485 46.740128 99.150422 46.70981 99.304533 46.70981 z M 103.41281 46.804378 L 105.24319 46.804378 C 105.49583 46.804378 105.71184 46.815745 105.89121 46.838485 C 106.07058 46.858698 106.23193 46.901475 106.37594 46.967159 C 106.55026 47.040425 106.70454 47.145444 106.83844 47.281868 C 106.97234 47.418294 107.07357 47.577458 107.14178 47.759359 C 107.21252 47.938733 107.24772 48.129305 107.24772 48.331417 C 107.24772 48.745745 107.13024 49.077051 106.89528 49.324638 C 106.66285 49.572225 106.30933 49.747638 105.83437 49.851221 C 106.03395 49.95733 106.22454 50.113796 106.40642 50.320959 C 106.58832 50.528125 106.75019 50.74953 106.89167 50.984485 C 107.03567 51.216914 107.14667 51.427526 107.22498 51.617004 C 107.30583 51.803958 107.34642 51.932805 107.34642 52.003544 C 107.34642 52.076809 107.32207 52.15042 107.27407 52.223686 C 107.22861 52.294425 107.16579 52.349662 107.08494 52.390084 C 107.00409 52.43303 106.91044 52.454679 106.80433 52.454679 C 106.67801 52.454679 106.57191 52.424362 106.48601 52.363729 C 106.40011 52.305622 106.32541 52.230921 106.26225 52.13997 C 106.20158 52.04902 106.11821 51.915293 106.01213 51.738444 L 105.56152 50.988102 C 105.39982 50.712724 105.25421 50.503205 105.12537 50.3592 C 104.99905 50.215196 104.8702 50.116665 104.73883 50.063611 C 104.60745 50.010558 104.44232 49.984029 104.24273 49.984029 L 103.84844 49.984029 L 103.84844 51.768933 C 103.84844 52.003888 103.79648 52.176604 103.6929 52.287764 C 103.58932 52.398926 103.4545 52.454679 103.28775 52.454679 C 103.10838 52.454679 102.96925 52.396744 102.87072 52.28053 C 102.77219 52.164315 102.72293 51.993783 102.72293 51.768933 L 102.72293 47.494259 C 102.72293 47.251724 102.77707 47.075794 102.88571 46.967159 C 102.99434 46.858524 103.17028 46.804378 103.41281 46.804378 z M 107.9562 46.804378 L 111.53376 46.804378 C 111.72829 46.804378 111.8723 46.847155 111.96578 46.933053 C 112.06178 47.01895 112.10995 47.131547 112.10995 47.2705 C 112.10995 47.409452 112.06178 47.52205 111.96578 47.607947 C 111.86977 47.691318 111.72577 47.733004 111.53376 47.733004 L 110.30593 47.733004 L 110.30593 51.768933 C 110.30593 52.001362 110.25396 52.174077 110.15038 52.287764 C 110.0468 52.398926 109.91307 52.454679 109.74886 52.454679 C 109.58212 52.454679 109.44569 52.397835 109.33958 52.284147 C 109.236 52.170459 109.18403 51.998836 109.18403 51.768933 L 109.18403 47.733004 L 107.9562 47.733004 C 107.76419 47.733004 107.6218 47.691318 107.52832 47.607947 C 107.43485 47.52205 107.38776 47.409452 107.38776 47.2705 C 107.38776 47.126494 107.43594 47.012806 107.53194 46.929435 C 107.63047 46.846064 107.77177 46.804378 107.9562 46.804378 z M 103.84844 47.649288 L 103.84844 49.176843 L 104.85665 49.176843 C 105.12698 49.176843 105.35435 49.154104 105.53878 49.10863 C 105.7232 49.06063 105.86342 48.981048 105.95942 48.869885 C 106.05795 48.756197 106.10722 48.600823 106.10722 48.403764 C 106.10722 48.249653 106.06772 48.114318 105.9894 47.998104 C 105.91108 47.879363 105.80278 47.791111 105.66383 47.733004 C 105.53246 47.677424 105.27316 47.649288 104.88662 47.649288 L 103.84844 47.649288 z M 99.297298 47.895785 L 98.474609 50.188668 L 100.13446 50.188668 L 99.297298 47.895785 z " />
    <g
       aria-label="UART"
       id="text21253"
       style="font-size:7.76111px;line-height:1.25;letter-spacing:0px;word-spacing:0px;stroke-width:0.264583"
       transform="translate(-0.3218815,0.287344)" />
  </g>
</svg>
